<?xml version="1.0" encoding="UTF-8"?>
<svg version="1.1" xmlns="http://www.w3.org/2000/svg" width="824" height="178">
<path d="M0 0 C7.72556692 7.18342187 9.23447669 14.69258021 10.08203125 24.94921875 C9.99390703 28.22660064 9.65515353 30.17101354 8 33 C1.21754181 37.2420751 -7.21476351 38.16726437 -15 37 C-25.81507151 33.74452261 -31.89121121 25.55459157 -37.125 16 C-41.33632824 8.01083232 -44.22928888 -0.42548871 -47 -9 C-30.17963198 -14.8042115 -13.81170896 -11.18090726 0 0 Z M-36 1 C-34.99908354 7.75618611 -31.24315689 12.96076646 -26.25 17.5 C-22.36683294 20.08877804 -20.0550523 20.10838287 -15.375 20.0625 C-13.59222656 20.04896484 -13.59222656 20.04896484 -11.7734375 20.03515625 C-10.40058594 20.01775391 -10.40058594 20.01775391 -9 20 C-7.95822833 16.74624738 -8.00882565 15.97254243 -9.125 12.5 C-11.29876013 8.44231442 -13.43339371 5.96400915 -17.84082031 4.30859375 C-19.90380052 3.71831036 -21.96856892 3.21830356 -24.0625 2.75 C-24.76955078 2.57726562 -25.47660156 2.40453125 -26.20507812 2.2265625 C-29.58830631 1.426024 -32.50397704 1 -36 1 Z " fill="#6095D7" transform="translate(133,97)"/>
<path d="M0 0 C2.09375 1.0703125 2.09375 1.0703125 5.09375 3.0703125 C6.95067195 9.78379954 5.91717982 16.92348018 3.125 23.2734375 C-2.38041556 32.72192097 -9.75639416 38.29702315 -19.90625 42.0703125 C-20.84597656 42.43898437 -21.78570312 42.80765625 -22.75390625 43.1875 C-26.45344576 44.22355443 -29.91029126 44.37153314 -33.71875 44.3203125 C-34.4214502 44.31572021 -35.12415039 44.31112793 -35.84814453 44.30639648 C-41.75706196 44.20348454 -47.54324547 43.75181477 -52.90625 41.0703125 C-52.27208667 36.32787367 -50.36616336 32.5286297 -48.21875 28.3203125 C-47.85716797 27.6080249 -47.49558594 26.8957373 -47.12304688 26.16186523 C-37.37339842 7.23417382 -23.04148468 -10.09935205 0 0 Z M-38.49609375 23.03125 C-40.25976092 25.58148342 -41.22701072 28.05147127 -41.90625 31.0703125 C-33.19550479 31.59064463 -23.87054951 31.16246611 -16.78125 25.6328125 C-13.49292893 21.42382911 -13.49292893 21.42382911 -13.28125 16.3203125 C-13.4875 15.5778125 -13.69375 14.8353125 -13.90625 14.0703125 C-24.32824632 10.59631373 -31.92441422 15.03745303 -38.49609375 23.03125 Z " fill="#6095D7" transform="translate(137.90625,37.9296875)"/>
<path d="M0 0 C1.84425412 6.12967495 -1.3662405 11.44492412 -4 17 C-9.83738428 26.72404774 -19.19723319 34.4525237 -30 38 C-40.85175028 40.53790934 -48.5427218 38.8949625 -58.26171875 34.01953125 C-61 32 -61 32 -61.9609375 29.65625 C-62.07594387 21.83581704 -60.00017331 13.70290412 -54.84765625 7.71484375 C-39.87565724 -6.18094392 -18.56786521 -2.33400775 0 0 Z M-37 10 C-40.23942325 13.90392033 -41.51999489 16.95994636 -42 22 C-38.15663271 23.80864343 -35.24153732 24.43280993 -31 24 C-26.38530908 22.0720294 -23.56396905 19.83601993 -20.3125 16.0625 C-19.56613281 15.20785156 -18.81976563 14.35320312 -18.05078125 13.47265625 C-14.43459027 9.6902441 -14.43459027 9.6902441 -13 5 C-22.10664893 3.25617361 -29.68706527 3.84522235 -37 10 Z " fill="#6095D7" transform="translate(68,82)"/>
<path d="M0 0 C9.74214139 7.15183958 14.52385313 16.98962745 19.3359375 27.71484375 C19.87863281 28.89949219 20.42132813 30.08414063 20.98046875 31.3046875 C24.4846444 39.26872306 24.4846444 39.26872306 23.3359375 42.71484375 C7.16322535 46.04451978 -5.48451658 44.42419189 -19.6640625 35.71484375 C-27.09889245 29.81071409 -31.08700758 24.0941704 -32.6640625 14.71484375 C-32.75326917 12.84150361 -32.79422904 10.96529954 -32.7890625 9.08984375 C-32.79164062 8.14882813 -32.79421875 7.2078125 -32.796875 6.23828125 C-32.6640625 3.71484375 -32.6640625 3.71484375 -31.6640625 0.71484375 C-21.99377086 -4.80312801 -9.70827539 -5.67101524 0 0 Z M-14.6640625 13.71484375 C-14.40433344 19.58942446 -14.40433344 19.58942446 -11.4765625 24.52734375 C-3.80661012 30.49286227 4.77801386 31.89756876 14.3359375 31.71484375 C10.64789807 23.51484118 7.95097803 17.90175865 0.0234375 13.40234375 C-4.89103816 12.1451523 -9.84990815 12.11012563 -14.6640625 13.71484375 Z " fill="#6095D7" transform="translate(44.6640625,33.28515625)"/>
<path d="M0 0 C7.87102912 5.98833339 13.54598848 13.89262899 15.55859375 23.73046875 C17.12317549 35.31945029 17.12732051 46.60415845 10.26953125 56.49609375 C6.17752035 61.47021478 1.2990251 66.11678631 -5 68 C-11.24247405 67.72219356 -13.84500155 64.90606916 -17.94140625 60.51953125 C-23.0984147 54.20782261 -24.7552091 48.24932559 -24.4453125 40.109375 C-22.28670257 25.03697585 -10.6889279 10.28301925 0 0 Z M-4 14 C-8.63911367 19.3018442 -12.85253259 25.77409708 -13 33 C-11.79916515 38.53171465 -9.91179677 42.81842414 -6 47 C-2.82966958 46.66032174 -2.00117393 46.00130809 0.1875 43.5625 C3.61422831 38.71781515 3.68068019 34.83757249 3 29 C1.65434811 24.1948177 0.08480914 19.54235689 -2 15 C-2.66 14.67 -3.32 14.34 -4 14 Z " fill="#6095D6" transform="translate(76,88)"/>
<path d="M0 0 C7.49627312 3.23702703 12.42884545 9.70515401 15.5703125 17.125 C18.65336201 27.5465758 16.94620001 38.36345527 12.75 48.1875 C8.31696563 56.04406587 2.02761771 64.16694282 -6.25 68.1875 C-6.91 68.1875 -7.57 68.1875 -8.25 68.1875 C-25.73590367 33.28563627 -25.73590367 33.28563627 -21.51953125 18.65234375 C-17.85662641 9.69691518 -10.33407026 0.59619636 0 0 Z M-3.25 21.1875 C-8.56822762 25.03410847 -12.12946369 28.546848 -13.25 35.1875 C-13.51235604 42.24829958 -11.46914186 47.98878032 -8.25 54.1875 C-2.64247572 48.98847087 2.54031601 41.5381856 3.875 33.875 C3.72211785 29.36497661 3.0094497 27.08310293 0.75 23.1875 C-1.28862818 21.98263133 -1.28862818 21.98263133 -3.25 21.1875 Z " fill="#6094D6" transform="translate(83.25,5.8125)"/>
<path d="M0 0 C0.495 0.33 0.99 0.66 1.5 1 C1.83 0.34 2.16 -0.32 2.5 -1 C4.48 -1 6.46 -1 8.5 -1 C8.57431132 4.17778402 8.62867808 9.35525569 8.66479492 14.53344727 C8.67985553 16.29391896 8.70030826 18.0543533 8.72631836 19.81469727 C8.76282229 22.34921503 8.77975354 24.88323552 8.79296875 27.41796875 C8.80845261 28.20149216 8.82393646 28.98501556 8.83988953 29.7922821 C8.84161978 35.44586662 7.61680114 38.53039867 4 42.75 C0.8808968 45.34925267 -2.49563434 45.19195463 -6.375 45.25 C-7.91800781 45.28867188 -7.91800781 45.28867188 -9.4921875 45.328125 C-12.9392797 44.95207858 -14.73592829 44.06101514 -17.5 42 C-19.5 39 -19.5 39 -19.5 35 C-17.19 35 -14.88 35 -12.5 35 C-12.17 35.66 -11.84 36.32 -11.5 37 C-6.86463727 38.2935896 -3.92109613 37.78949129 0.5 36 C0.83 34.35 1.16 32.7 1.5 31 C1.005 31.33 0.51 31.66 0 32 C-3.52646706 33.41058683 -6.78941354 33.56480989 -10.5 33 C-14.80870712 30.96759098 -17.37753619 28.75490004 -19.03125 24.1875 C-20.62118132 16.76782049 -20.29286467 9.60239406 -16.5 3 C-12.51307766 -1.98365292 -5.64904132 -2.25961653 0 0 Z M-9.3125 5.75 C-12.55203989 9.08209818 -13.19634819 12.4300402 -13.5 17 C-12.89016301 21.20109928 -12.38479753 23.1889356 -9.25 26.0625 C-5.59729278 27.3077411 -3.92139925 26.67268408 -0.5 25 C2.5361288 20.4458068 2.71614194 16.62106458 2 11.25 C0.72726607 7.72657593 0.72726607 7.72657593 -2.8125 5.875 C-6.36170262 4.72524212 -6.36170262 4.72524212 -9.3125 5.75 Z " fill="#2D496C" transform="translate(744.5,65)"/>
<path d="M0 0 C1.98 0 3.96 0 6 0 C6.33 6.93 6.66 13.86 7 21 C8.423125 19.4840625 9.84625 17.968125 11.3125 16.40625 C12.71775112 14.94534537 14.12315594 13.48458072 15.53271484 12.02783203 C16.50405927 11.01640551 17.4680856 9.99789515 18.42431641 8.97216797 C26.40929208 0.4221784 26.40929208 0.4221784 30.47265625 -0.65625 C32.6875 -0.65625 32.6875 -0.65625 36 0 C33.17901246 3.43093079 30.3393213 6.71460873 27.1171875 9.7734375 C26.36369019 10.49503052 26.36369019 10.49503052 25.5949707 11.23120117 C24.58033256 12.19540645 23.55545189 13.14895632 22.52026367 14.09106445 C20.90774682 15.57611423 20.90774682 15.57611423 19 18 C19.33145328 21.26582613 20.6913115 23.17280562 22.765625 25.64453125 C23.32636719 26.32193359 23.88710938 26.99933594 24.46484375 27.69726562 C25.05394531 28.39529297 25.64304687 29.09332031 26.25 29.8125 C38 43.87289326 38 43.87289326 38 46 C31.10099338 46.78228477 31.10099338 46.78228477 28.31152344 44.80029297 C26.71201082 43.08416002 25.28464365 41.31259202 23.875 39.4375 C23.38902344 38.82841797 22.90304687 38.21933594 22.40234375 37.59179688 C21.42331417 36.36476378 20.45284004 35.13085369 19.49121094 33.89013672 C17.08925405 30.8456131 14.54656382 27.92377007 12 25 C8.33158613 28.1040425 7.16443253 29.8918174 6.4453125 34.73828125 C6.16230962 38.48974603 6.05263703 42.2388449 6 46 C4.02 46 2.04 46 0 46 C0 30.82 0 15.64 0 0 Z " fill="#294569" transform="translate(327,52)"/>
<path d="M0 0 C1.98 0 3.96 0 6 0 C6 5.94 6 11.88 6 18 C13.26 18 20.52 18 28 18 C28 12.06 28 6.12 28 0 C29.98 0 31.96 0 34 0 C34 15.18 34 30.36 34 46 C32.02 46 30.04 46 28 46 C28 38.74 28 31.48 28 24 C20.74 24 13.48 24 6 24 C6 31.26 6 38.52 6 46 C4.02 46 2.04 46 0 46 C0 30.82 0 15.64 0 0 Z " fill="#17365D" transform="translate(561,52)"/>
<path d="M0 0 C1.98 0 3.96 0 6 0 C6 5.94 6 11.88 6 18 C13.26 18 20.52 18 28 18 C28 12.06 28 6.12 28 0 C29.98 0 31.96 0 34 0 C34 15.18 34 30.36 34 46 C32.02 46 30.04 46 28 46 C28 38.74 28 31.48 28 24 C20.74 24 13.48 24 6 24 C6 31.26 6 38.52 6 46 C4.02 46 2.04 46 0 46 C0 30.82 0 15.64 0 0 Z " fill="#17365D" transform="translate(163,52)"/>
<path d="M0 0 C1.21171875 -0.04898438 2.4234375 -0.09796875 3.671875 -0.1484375 C7.12009755 0.3559968 9.49688944 0.92041368 12.08007812 3.34667969 C14.93984538 8.30472359 14.43950402 14.59793234 14.625 20.1875 C14.69139988 21.56197756 14.76038433 22.93633284 14.83203125 24.31054688 C14.99681314 27.66503528 15.13514454 31.01849202 15.25 34.375 C11.875 34.5 11.875 34.5 8.25 34.375 C7.59 33.715 6.93 33.055 6.25 32.375 C5.42822266 32.86033203 5.42822266 32.86033203 4.58984375 33.35546875 C0.33433742 35.2097044 -4.19695822 34.82018631 -8.75 34.375 C-11.875 33.0625 -11.875 33.0625 -13.75 31.375 C-14.99734887 27.63295338 -15.3651714 24.25589614 -14.75 20.375 C-12.59859901 16.78933168 -10.62095637 15.64841415 -6.6640625 14.40625 C-1.93739576 13.25910391 2.37468816 12.375 7.25 12.375 C6.76294288 10.31097032 6.76294288 10.31097032 5.25 8.375 C0.64502873 7.22375718 -3.13819892 7.36265342 -7.75 8.375 C-7.75 9.035 -7.75 9.695 -7.75 10.375 C-10.06 10.375 -12.37 10.375 -14.75 10.375 C-14.45179167 6.79650008 -14.00754642 5.61273516 -11.3125 3.125 C-7.29544811 0.38164749 -4.88427998 0.13395705 0 0 Z M-6.75 21.375 C-7.08 23.025 -7.41 24.675 -7.75 26.375 C-3.89436527 28.16175756 -2.17283097 28.48775492 2 27.375 C5.48485489 25.6493511 5.48485489 25.6493511 6.6875 22.1875 C6.873125 21.259375 7.05875 20.33125 7.25 19.375 C2.3825729 19.06097245 -2.05939214 20.23045081 -6.75 21.375 Z " fill="#314C6F" transform="translate(705.75,63.625)"/>
<path d="M0 0 C1.21171875 -0.04898438 2.4234375 -0.09796875 3.671875 -0.1484375 C7.12009755 0.3559968 9.49688944 0.92041368 12.08007812 3.34667969 C14.93984538 8.30472359 14.43950402 14.59793234 14.625 20.1875 C14.69139988 21.56197756 14.76038433 22.93633284 14.83203125 24.31054688 C14.99681314 27.66503528 15.13514454 31.01849202 15.25 34.375 C11.875 34.5 11.875 34.5 8.25 34.375 C7.59 33.715 6.93 33.055 6.25 32.375 C5.42822266 32.86033203 5.42822266 32.86033203 4.58984375 33.35546875 C0.33433742 35.2097044 -4.19695822 34.82018631 -8.75 34.375 C-11.875 33.0625 -11.875 33.0625 -13.75 31.375 C-14.99734887 27.63295338 -15.3651714 24.25589614 -14.75 20.375 C-12.59859901 16.78933168 -10.62095637 15.64841415 -6.6640625 14.40625 C-1.93739576 13.25910391 2.37468816 12.375 7.25 12.375 C6.76294288 10.31097032 6.76294288 10.31097032 5.25 8.375 C0.64502873 7.22375718 -3.13819892 7.36265342 -7.75 8.375 C-7.75 9.035 -7.75 9.695 -7.75 10.375 C-10.06 10.375 -12.37 10.375 -14.75 10.375 C-14.45179167 6.79650008 -14.00754642 5.61273516 -11.3125 3.125 C-7.29544811 0.38164749 -4.88427998 0.13395705 0 0 Z M-6.75 21.375 C-7.08 23.025 -7.41 24.675 -7.75 26.375 C-3.89436527 28.16175756 -2.17283097 28.48775492 2 27.375 C5.48485489 25.6493511 5.48485489 25.6493511 6.6875 22.1875 C6.873125 21.259375 7.05875 20.33125 7.25 19.375 C2.3825729 19.06097245 -2.05939214 20.23045081 -6.75 21.375 Z " fill="#314C6F" transform="translate(519.75,63.625)"/>
<path d="M0 0 C3.03950016 1.78663302 3.87665529 3.17746519 4.7890625 6.56640625 C4.8303125 7.47390625 4.8715625 8.38140625 4.9140625 9.31640625 C2.6040625 9.31640625 0.2940625 9.31640625 -2.0859375 9.31640625 C-2.4159375 8.65640625 -2.7459375 7.99640625 -3.0859375 7.31640625 C-6.61258851 6.454336 -9.68699257 5.80576406 -13.0859375 7.31640625 C-13.4159375 8.30640625 -13.7459375 9.29640625 -14.0859375 10.31640625 C-13.46847656 10.414375 -12.85101563 10.51234375 -12.21484375 10.61328125 C-6.16915913 11.68070806 -0.38641683 13.10641769 4.9140625 16.31640625 C7.42656833 20.085165 7.44422336 21.84790759 6.9140625 26.31640625 C4.90076324 29.7932192 2.79870111 32.02152671 -1.0859375 33.31640625 C-7.274866 33.8216249 -12.87089638 34.09731106 -18.0859375 30.31640625 C-20.69284879 26.92742157 -21.0859375 25.68906012 -21.0859375 21.31640625 C-18.7759375 21.31640625 -16.4659375 21.31640625 -14.0859375 21.31640625 C-13.7559375 22.63640625 -13.4259375 23.95640625 -13.0859375 25.31640625 C-8.7694453 26.07814017 -5.34160297 26.47704229 -1.0859375 25.31640625 C-1.0859375 24.32640625 -1.0859375 23.33640625 -1.0859375 22.31640625 C-2.19453125 22.001875 -3.303125 21.68734375 -4.4453125 21.36328125 C-5.90905358 20.93166529 -7.37258445 20.49933596 -8.8359375 20.06640625 C-9.56554687 19.86144531 -10.29515625 19.65648438 -11.046875 19.4453125 C-15.31376778 18.16524467 -18.35663918 17.05160575 -21.0859375 13.31640625 C-21.69212636 8.54266898 -21.80185584 6.47668769 -19.2734375 2.37890625 C-14.53138477 -2.09217204 -6.00333166 -1.96738397 0 0 Z " fill="#334E70" transform="translate(422.0859375,64.68359375)"/>
<path d="M0 0 C3.38360889 1.69180444 4.92720598 3.41410418 6.828125 6.6640625 C7.890625 10.3515625 7.890625 10.3515625 7.890625 17.3515625 C0.300625 17.3515625 -7.289375 17.3515625 -15.109375 17.3515625 C-13.00770728 24.22801192 -13.00770728 24.22801192 -9.296875 25.9140625 C-5.59852371 26.42167934 -3.49796977 25.84884856 -0.109375 24.3515625 C0.220625 24.0215625 0.550625 23.6915625 0.890625 23.3515625 C3.22359933 23.31063313 5.55767725 23.30914527 7.890625 23.3515625 C6.58017137 27.28292339 5.05854454 29.66363077 1.890625 32.3515625 C-2.73773014 33.89434755 -7.2758595 33.85635024 -12.109375 33.3515625 C-17.25791181 30.7772941 -20.291383 27.80553849 -22.109375 22.3515625 C-23.05197319 9.78962897 -23.05197319 9.78962897 -19.109375 4.3515625 C-13.34390411 -0.85142342 -7.61080567 -2.33961804 0 0 Z M-14.109375 8.3515625 C-14.439375 10.0015625 -14.769375 11.6515625 -15.109375 13.3515625 C-9.829375 13.3515625 -4.549375 13.3515625 0.890625 13.3515625 C0.560625 11.7015625 0.230625 10.0515625 -0.109375 8.3515625 C-5.86431098 4.80064455 -8.35443902 4.80064455 -14.109375 8.3515625 Z " fill="#2E4A6D" transform="translate(781.109375,64.6484375)"/>
<path d="M0 0 C3.38360889 1.69180444 4.92720598 3.41410418 6.828125 6.6640625 C7.890625 10.3515625 7.890625 10.3515625 7.890625 17.3515625 C0.300625 17.3515625 -7.289375 17.3515625 -15.109375 17.3515625 C-13.00770728 24.22801192 -13.00770728 24.22801192 -9.296875 25.9140625 C-5.59852371 26.42167934 -3.49796977 25.84884856 -0.109375 24.3515625 C0.220625 24.0215625 0.550625 23.6915625 0.890625 23.3515625 C3.22359933 23.31063313 5.55767725 23.30914527 7.890625 23.3515625 C6.58017137 27.28292339 5.05854454 29.66363077 1.890625 32.3515625 C-2.73773014 33.89434755 -7.2758595 33.85635024 -12.109375 33.3515625 C-17.25791181 30.7772941 -20.291383 27.80553849 -22.109375 22.3515625 C-23.05197319 9.78962897 -23.05197319 9.78962897 -19.109375 4.3515625 C-13.34390411 -0.85142342 -7.61080567 -2.33961804 0 0 Z M-14.109375 8.3515625 C-14.439375 10.0015625 -14.769375 11.6515625 -15.109375 13.3515625 C-9.829375 13.3515625 -4.549375 13.3515625 0.890625 13.3515625 C0.560625 11.7015625 0.230625 10.0515625 -0.109375 8.3515625 C-5.86431098 4.80064455 -8.35443902 4.80064455 -14.109375 8.3515625 Z " fill="#2E4A6D" transform="translate(625.109375,64.6484375)"/>
<path d="M0 0 C3.38360889 1.69180444 4.92720598 3.41410418 6.828125 6.6640625 C7.890625 10.3515625 7.890625 10.3515625 7.890625 17.3515625 C0.300625 17.3515625 -7.289375 17.3515625 -15.109375 17.3515625 C-13.00770728 24.22801192 -13.00770728 24.22801192 -9.296875 25.9140625 C-5.59852371 26.42167934 -3.49796977 25.84884856 -0.109375 24.3515625 C0.220625 24.0215625 0.550625 23.6915625 0.890625 23.3515625 C3.22359933 23.31063313 5.55767725 23.30914527 7.890625 23.3515625 C6.58017137 27.28292339 5.05854454 29.66363077 1.890625 32.3515625 C-2.73773014 33.89434755 -7.2758595 33.85635024 -12.109375 33.3515625 C-17.25791181 30.7772941 -20.291383 27.80553849 -22.109375 22.3515625 C-23.05197319 9.78962897 -23.05197319 9.78962897 -19.109375 4.3515625 C-13.34390411 -0.85142342 -7.61080567 -2.33961804 0 0 Z M-14.109375 8.3515625 C-14.439375 10.0015625 -14.769375 11.6515625 -15.109375 13.3515625 C-9.829375 13.3515625 -4.549375 13.3515625 0.890625 13.3515625 C0.560625 11.7015625 0.230625 10.0515625 -0.109375 8.3515625 C-5.86431098 4.80064455 -8.35443902 4.80064455 -14.109375 8.3515625 Z " fill="#2E4A6D" transform="translate(279.109375,64.6484375)"/>
<path d="M0 0 C1.98 0 3.96 0 6 0 C6.33 4.95 6.66 9.9 7 15 C8.65 14.01 10.3 13.02 12 12 C16.2853842 11.25152536 19.96839964 11.53907218 23.9375 13.3125 C26 15 26 15 28 18 C28.22705078 20.91088867 28.22705078 20.91088867 28.1953125 24.41796875 C28.18886719 25.67158203 28.18242187 26.92519531 28.17578125 28.21679688 C28.15902344 29.52712891 28.14226562 30.83746094 28.125 32.1875 C28.11496639 33.52277987 28.1058412 34.85806689 28.09765625 36.19335938 C28.07405292 39.46242015 28.04112594 42.73112028 28 46 C26.02 46 24.04 46 22 46 C21.98018066 45.39003174 21.96036133 44.78006348 21.93994141 44.15161133 C21.84432124 41.37149467 21.73479295 38.59209154 21.625 35.8125 C21.5940625 34.85279297 21.563125 33.89308594 21.53125 32.90429688 C21.49257813 31.97294922 21.45390625 31.04160156 21.4140625 30.08203125 C21.36693115 28.80162964 21.36693115 28.80162964 21.31884766 27.49536133 C20.96107952 24.69540108 20.25986457 22.52385354 19 20 C16.11009951 18.82841872 14.36543214 18.93201262 11.3125 19.5 C8.52058239 21.31097359 8.21526365 22.76344297 7.40405273 25.90087891 C6.66865801 29.7213767 6.5250975 33.55685413 6.375 37.4375 C6.33632813 38.26443359 6.29765625 39.09136719 6.2578125 39.94335938 C6.16446908 41.96191073 6.08119039 43.98092331 6 46 C4.02 46 2.04 46 0 46 C0 30.82 0 15.64 0 0 Z " fill="#213F64" transform="translate(435,52)"/>
<path d="M0 0 C4.17467911 3.66557191 6.37589595 6.52988718 6.765625 12.2109375 C6.78109375 13.33757812 6.7965625 14.46421875 6.8125 15.625 C6.83828125 16.74648437 6.8640625 17.86796875 6.890625 19.0234375 C6.34419311 24.39668442 3.54667009 27.76385117 -0.4375 31.25 C-5.93790317 33.08346772 -12.0922674 33.32323439 -17.375 30.6875 C-20.91806055 27.86751303 -22.56191539 25.62010534 -23.4375 21.25 C-24.1628036 14.65880357 -24.16640261 8.61884429 -20.6875 2.80859375 C-15.69598979 -3.41519554 -6.59828778 -3.35912832 0 0 Z M-14.4375 7.25 C-16.85088775 11.2204121 -17.80032999 13.99250685 -16.8125 18.5 C-15.45547068 22.59227269 -15.45547068 22.59227269 -12.4375 25.25 C-9.32263006 26.39758366 -7.93196679 26.4383683 -4.8125 25.25 C-1.5627321 22.51335335 -0.57684262 20.33822941 0.5625 16.25 C0.28609864 12.57588438 -0.66017379 9.39748154 -2.75 6.3125 C-7.2596864 3.47306782 -10.39780279 3.84814972 -14.4375 7.25 Z " fill="#324E70" transform="translate(228.4375,65.75)"/>
<path d="M0 0 C1.98 0 3.96 0 6 0 C6.33 0.99 6.66 1.98 7 3 C7.61875 2.505 8.2375 2.01 8.875 1.5 C13.26754375 -0.608421 17.20536086 -0.73218627 22 0 C24.93423195 1.79646854 26.47205355 2.9441071 28 6 C28.08543895 8.10528933 28.10714725 10.21331157 28.09765625 12.3203125 C28.09443359 13.57714844 28.09121094 14.83398438 28.08789062 16.12890625 C28.07951172 17.44761719 28.07113281 18.76632813 28.0625 20.125 C28.05748489 21.46484211 28.05292201 22.804686 28.04882812 24.14453125 C28.03701086 27.42973206 28.02053617 30.71484397 28 34 C26.02 34 24.04 34 22 34 C21.98018066 33.39003174 21.96036133 32.78006348 21.93994141 32.15161133 C21.84432124 29.37149467 21.73479295 26.59209154 21.625 23.8125 C21.5940625 22.85279297 21.563125 21.89308594 21.53125 20.90429688 C21.49257813 19.97294922 21.45390625 19.04160156 21.4140625 18.08203125 C21.36693115 16.80162964 21.36693115 16.80162964 21.31884766 15.49536133 C20.96107952 12.69540108 20.25986457 10.52385354 19 8 C16.08417092 6.81790713 14.38092655 6.92027119 11.3125 7.5625 C8.03950648 9.59706354 7.94482544 11.27433463 7 15 C6.63838054 18.28780308 6.49443885 21.57052512 6.375 24.875 C6.33632813 25.75414063 6.29765625 26.63328125 6.2578125 27.5390625 C6.16418966 29.69238793 6.08103541 31.84616414 6 34 C4.02 34 2.04 34 0 34 C0 22.78 0 11.56 0 0 Z " fill="#213F64" transform="translate(471,64)"/>
<path d="M0 0 C0 3.96 0 7.92 0 12 C1.98 12 3.96 12 6 12 C6 13.98 6 15.96 6 18 C4.02 18 2.04 18 0 18 C0.33 24.93 0.66 31.86 1 39 C2.65 39.33 4.3 39.66 6 40 C6 41.98 6 43.96 6 46 C4.56344146 46.08131463 3.1255517 46.13933559 1.6875 46.1875 C0.48673828 46.23970703 0.48673828 46.23970703 -0.73828125 46.29296875 C-3 46 -3 46 -4.62304688 44.84179688 C-6.55702617 42.25492811 -6.34176859 40.44280393 -6.29296875 37.23828125 C-6.28330078 36.12001953 -6.27363281 35.00175781 -6.26367188 33.84960938 C-6.23853516 32.68236328 -6.21339844 31.51511719 -6.1875 30.3125 C-6.17396484 29.13365234 -6.16042969 27.95480469 -6.14648438 26.74023438 C-6.11109326 23.82636589 -6.06171809 20.91341055 -6 18 C-7.32 18 -8.64 18 -10 18 C-10 16.02 -10 14.04 -10 12 C-8.68 12 -7.36 12 -6 12 C-6.05800781 11.38511719 -6.11601563 10.77023438 -6.17578125 10.13671875 C-6.31320095 7.67494292 -6.36356054 5.44104933 -6 3 C-2.45454545 0 -2.45454545 0 0 0 Z " fill="#1E3C62" transform="translate(681,52)"/>
<path d="M0 0 C0 3.96 0 7.92 0 12 C1.98 12 3.96 12 6 12 C6 13.98 6 15.96 6 18 C4.02 18 2.04 18 0 18 C0.33 24.93 0.66 31.86 1 39 C2.65 39.33 4.3 39.66 6 40 C6 41.98 6 43.96 6 46 C4.56344146 46.08131463 3.1255517 46.13933559 1.6875 46.1875 C0.48673828 46.23970703 0.48673828 46.23970703 -0.73828125 46.29296875 C-3 46 -3 46 -4.62304688 44.84179688 C-6.55702617 42.25492811 -6.34176859 40.44280393 -6.29296875 37.23828125 C-6.28330078 36.12001953 -6.27363281 35.00175781 -6.26367188 33.84960938 C-6.23853516 32.68236328 -6.21339844 31.51511719 -6.1875 30.3125 C-6.17396484 29.13365234 -6.16042969 27.95480469 -6.14648438 26.74023438 C-6.11109326 23.82636589 -6.06171809 20.91341055 -6 18 C-7.32 18 -8.64 18 -10 18 C-10 16.02 -10 14.04 -10 12 C-8.68 12 -7.36 12 -6 12 C-6.05800781 11.38511719 -6.11601562 10.77023438 -6.17578125 10.13671875 C-6.31320095 7.67494292 -6.36356054 5.44104933 -6 3 C-2.45454545 0 -2.45454545 0 0 0 Z " fill="#1E3C62" transform="translate(247,52)"/>
<path d="M0 0 C1.98 0 3.96 0 6 0 C6.33 0.66 6.66 1.32 7 2 C7.99 1.34 8.98 0.68 10 0 C12.33199388 -0.07905064 14.66832622 -0.08798769 17 0 C17.625 1.8125 17.625 1.8125 18 4 C17.01 5.485 17.01 5.485 16 7 C12.375 7.6875 12.375 7.6875 9 8 C7.3355947 13.89984316 6.61399663 19.38566954 6.375 25.5 C6.33632813 26.32242188 6.29765625 27.14484375 6.2578125 27.9921875 C6.16468308 29.9944701 6.08131015 31.99720262 6 34 C4.02 34 2.04 34 0 34 C0 22.78 0 11.56 0 0 Z " fill="#244166" transform="translate(639,64)"/>
<path d="M0 0 C1.98 0 3.96 0 6 0 C6.33 0.66 6.66 1.32 7 2 C7.99 1.34 8.98 0.68 10 0 C12.33199388 -0.07905064 14.66832622 -0.08798769 17 0 C17.625 1.8125 17.625 1.8125 18 4 C17.01 5.485 17.01 5.485 16 7 C12.375 7.6875 12.375 7.6875 9 8 C7.3355947 13.89984316 6.61399663 19.38566954 6.375 25.5 C6.33632813 26.32242188 6.29765625 27.14484375 6.2578125 27.9921875 C6.16468308 29.9944701 6.08131015 31.99720262 6 34 C4.02 34 2.04 34 0 34 C0 22.78 0 11.56 0 0 Z " fill="#244166" transform="translate(367,64)"/>
<path d="M0 0 C1.98 0 3.96 0 6 0 C6 15.18 6 30.36 6 46 C4.02 46 2.04 46 0 46 C0 30.82 0 15.64 0 0 Z " fill="#17365D" transform="translate(293,52)"/>
<path d="M0 0 C1.98 0 3.96 0 6 0 C6 11.22 6 22.44 6 34 C4.02 34 2.04 34 0 34 C0 22.78 0 11.56 0 0 Z " fill="#17365D" transform="translate(661,64)"/>
<path d="M0 0 C1.98 0 3.96 0 6 0 C6 11.22 6 22.44 6 34 C4.02 34 2.04 34 0 34 C0 22.78 0 11.56 0 0 Z " fill="#17365D" transform="translate(389,64)"/>
<path d="M0 0 C1.98 0 3.96 0 6 0 C6 1.98 6 3.96 6 6 C4.02 6 2.04 6 0 6 C0 4.02 0 2.04 0 0 Z " fill="#17365D" transform="translate(661,52)"/>
<path d="M0 0 C1.98 0 3.96 0 6 0 C6 1.98 6 3.96 6 6 C4.02 6 2.04 6 0 6 C0 4.02 0 2.04 0 0 Z " fill="#17365D" transform="translate(389,52)"/>
</svg>
